# xmcd
#
# Track frame offsets:
#	150
#	10800
#	22750
#	36440
#	49525
#	61175
#	74400
#	88035
#	97800
#	110050
#	121850
#	136040
#	149400
#	163377
#	176612
#	191650
#	206512
#	220225
#	230800
#	242315
#	254960
#	266985
#	279500
#	291600
#	305235
#	316872
#
# Disc length: 4397
#
# Revision: 5
# Processed by: cddbd v1.5.1PL0 Copyright (c) Steve Scherf et al.
# Submitted via: Grip 3.0.7
# Normalized: r4:DSETVAR1
#
DISCID=8f112b1a
DTITLE=Various Artist - The Rhino Atlantic Remasters Collection - Disc 2
DYEAR=1992
DGENRE=R&B
TTITLE0=Carla Thomas - Gee Whiz
TTITLE1=The Mar-Keys - Last Night
TTITLE2=William Bell - You Don't Miss Your Water
TTITLE3=Booker T. and The MG's - Green Onions
TTITLE4=Rufus Thomas - Walking The Dog
TTITLE5=Otis Redding - I've Been Loving You Too Long
TTITLE6=Astors - Candy
TTITLE7=Aretha Franklin - Respect
TTITLE8=Mad Lads - I Want Someone
TTITLE9=Sam and Dave - Hold On I'm Coming
TTITLE10=Albert King - Laundromat Blues
TTITLE11=Mable John - Your Good Thing (Is About To End)
TTITLE12=Eddie Floyd - Knock On Wood
TTITLE13=Carla Thomas - B-A-B-Y
TTITLE14=Otis Redding - Try A Little Tenderness
TTITLE15=Sam and Dave - When Something Is Wrong With My Baby
TTITLE16=Otis and Carla - Tramp
TTITLE17=Bar-Kays - Soul Finger
TTITLE18=Otis Redding - Shake
TTITLE19=Albert King - Born Under A Bad Sign
TTITLE20=Sam and Dave - Soul Man
TTITLE21=Sam and Dave - I Thank You
TTITLE22=Otis Redding - Dock Of The Bay
TTITLE23=Eddie Floyd - Big Bird
TTITLE24=Johnnie Taylor - Next Time
TTITLE25=William Bell - A Tribute To A King
EXTD=
EXTT0=
EXTT1=
EXTT2=
EXTT3=
EXTT4=
EXTT5=
EXTT6=
EXTT7=
EXTT8=
EXTT9=
EXTT10=
EXTT11=
EXTT12=
EXTT13=
EXTT14=
EXTT15=
EXTT16=
EXTT17=
EXTT18=
EXTT19=
EXTT20=
EXTT21=
EXTT22=
EXTT23=
EXTT24=
EXTT25=
PLAYORDER=
